<?xml version="1.0" encoding="utf-8"?>
<!-- Generator: Adobe Illustrator 16.0.0, SVG Export Plug-In . SVG Version: 6.00 Build 0)  -->
<!DOCTYPE svg PUBLIC "-//W3C//DTD SVG 1.1//EN" "http://www.w3.org/Graphics/SVG/1.1/DTD/svg11.dtd">
<svg version="1.1" id="Layer_1" xmlns="http://www.w3.org/2000/svg" xmlns:xlink="http://www.w3.org/1999/xlink" x="0px" y="0px"
	 width="125.072px" height="143.086px" viewBox="0 0 125.072 143.086" enable-background="new 0 0 125.072 143.086"
	 xml:space="preserve">
<g>
	<g>
		<path fill="#05283F" d="M7.086,5.929l114.466,66.086c0.827,0.479,1.335,1.36,1.335,2.313c0,0.955-0.508,1.838-1.335,2.313
			L7.086,142.729c-0.826,0.477-1.844,0.477-2.67,0c-0.827-0.478-1.336-1.358-1.336-2.313V8.242c0-0.954,0.509-1.836,1.336-2.313
			C5.242,5.452,6.26,5.452,7.086,5.929z"/>
		<path fill="#C2B49B" d="M0,136.707V2.894C0,1.86,0.551,0.905,1.446,0.387c0.896-0.517,1.999-0.517,2.894,0l60.409,34.877
			L0,136.707z"/>
	</g>
	<g>
		<path fill="#FFFFFF" d="M23.058,79.388h-3.211l-0.549-3.673h-3.904l-0.55,3.673h-2.92l3.239-20.245h4.656L23.058,79.388z
			 M15.798,72.968h3.065L17.36,62.729h-0.058L15.798,72.968z"/>
		<path fill="#FFFFFF" d="M34.049,63.8v0.723c0,2.082-0.636,3.383-2.053,4.048v0.058c1.706,0.665,2.371,2.169,2.371,4.309v1.648
			c0,3.124-1.648,4.801-4.83,4.801h-5.003V59.143h4.801C32.632,59.143,34.049,60.676,34.049,63.8z M27.716,62.036v5.35h1.244
			c1.185,0,1.908-0.521,1.908-2.14v-1.128c0-1.446-0.491-2.082-1.62-2.082H27.716z M27.716,70.278v6.218h1.822
			c1.07,0,1.648-0.492,1.648-1.995v-1.766c0-1.879-0.607-2.457-2.054-2.457H27.716z"/>
		<path fill="#FFFFFF" d="M36.017,64.001c0-3.239,1.707-5.09,4.83-5.09c3.124,0,4.83,1.851,4.83,5.09v10.528
			c0,3.239-1.707,5.09-4.83,5.09c-3.123,0-4.83-1.851-4.83-5.09V64.001z M39.199,74.731c0,1.446,0.636,1.996,1.648,1.996
			c1.013,0,1.648-0.55,1.648-1.996V63.8c0-1.446-0.636-1.997-1.648-1.997c-1.012,0-1.648,0.55-1.648,1.997V74.731z"/>
		<path fill="#FFFFFF" d="M50.768,59.143v15.618c0,1.446,0.637,1.967,1.648,1.967c1.012,0,1.649-0.521,1.649-1.967V59.143h3.008
			v15.415c0,3.239-1.62,5.091-4.743,5.091s-4.743-1.852-4.743-5.091V59.143H50.768z"/>
		<path fill="#FFFFFF" d="M58.318,59.143h9.833v2.893h-3.325v17.352h-3.182V62.036h-3.326V59.143z"/>
		<path fill="#FFFFFF" d="M80.732,73.518h0.059l2.141-14.375h4.425v20.245h-3.008V64.87h-0.058l-2.142,14.518h-3.007l-2.314-14.315
			h-0.058v14.315h-2.776V59.143h4.426L80.732,73.518z"/>
		<path fill="#FFFFFF" d="M92.853,67.675h4.367v2.892h-4.367v5.93h5.495v2.892h-8.676V59.143h8.676v2.893h-5.495V67.675z"/>
	</g>
</g>
</svg>
