<?xml version="1.0" encoding="utf-8"?>
<!-- Generator: Adobe Illustrator 16.0.0, SVG Export Plug-In . SVG Version: 6.00 Build 0)  -->
<!DOCTYPE svg PUBLIC "-//W3C//DTD SVG 1.1//EN" "http://www.w3.org/Graphics/SVG/1.1/DTD/svg11.dtd">
<svg version="1.1" id="Layer_1" xmlns="http://www.w3.org/2000/svg" xmlns:xlink="http://www.w3.org/1999/xlink" x="0px" y="0px"
	 width="200px" height="200px" viewBox="-50 -50 200 200" enable-background="new -50 -50 200 200" xml:space="preserve">
<circle fill="#FFFFFF" cx="50.256" cy="50.251" r="100"/>
<g>
	<path fill="#042840" d="M99.895,54.689c-0.258,1.881-0.449,3.771-0.787,5.638c-2.229,12.354-8.488,22.299-18.153,30.177
		c-4.373,3.564-9.326,6.098-14.64,7.945c-2.207,0.771-3.709-0.299-3.726-2.667c-0.026-4.072-0.019-8.144-0.006-12.216
		c0.011-3.711-0.319-7.309-3.274-10.15c2.015-0.373,3.922-0.628,5.778-1.09c5.101-1.276,9.664-3.51,12.772-7.956
		c2.328-3.326,3.464-7.149,3.764-11.147c0.204-2.748,0.165-5.551-0.141-8.289c-0.369-3.308-1.935-6.194-4.121-8.706
		c-0.437-0.5-0.508-0.912-0.291-1.542c1.393-4.05,0.826-8.015-0.66-11.908c-0.09-0.237-0.516-0.451-0.809-0.487
		c-1.688-0.206-3.295,0.227-4.785,0.931c-2.441,1.154-4.84,2.413-7.215,3.704c-0.666,0.361-1.218,0.512-1.977,0.32
		c-7.561-1.92-15.135-1.916-22.698-0.014c-0.79,0.198-1.382,0.104-2.059-0.344c-3.057-2.028-6.346-3.574-9.92-4.455
		c-2.399-0.591-2.814-0.308-3.481,1.994c-1.033,3.563-1.176,7.105,0.047,10.661c0.093,0.27-0.07,0.743-0.276,0.983
		c-2.241,2.606-3.804,5.57-4.265,8.971c-0.959,7.051-0.069,13.795,4.033,19.815c2.13,3.125,5.262,5.07,8.747,6.295
		c2.534,0.893,5.226,1.336,7.851,1.963c0.466,0.113,0.951,0.148,1.297,0.201c-0.726,1.328-1.479,2.656-2.176,4.012
		c-0.216,0.42-0.371,0.919-0.387,1.385c-0.037,1.141-0.702,1.623-1.689,1.88c-2.649,0.689-5.306,1.183-7.968,0.106
		c-2.088-0.844-3.606-2.367-4.725-4.278c-1.479-2.522-3.489-4.419-6.312-5.258c-0.976-0.288-2.084-0.228-3.124-0.17
		c-0.688,0.039-0.972,0.547-0.468,1.157c0.447,0.543,0.89,1.162,1.478,1.504c2.573,1.486,4.034,3.851,5.224,6.427
		c0.73,1.582,1.337,3.204,2.677,4.429c2.072,1.893,4.592,2.607,7.277,2.736c2.341,0.113,4.694-0.021,7.18-0.049
		c-0.082-0.153-0.001-0.072,0,0.01c0.042,3.005,0.14,6.01,0.09,9.012c-0.033,1.953-1.719,2.991-3.682,2.246
		c-2.436-0.927-4.891-1.865-7.192-3.074C16.581,89.859,9.144,81.43,4.389,70.613c-2.023-4.604-3.126-9.479-3.572-14.494
		c-0.037-0.413-0.132-0.82-0.2-1.23c0-2.326,0-4.654,0-6.979c0.064-0.245,0.151-0.487,0.188-0.736
		c0.335-2.229,0.523-4.49,1.014-6.684c2.365-10.58,7.698-19.449,15.855-26.532C25.477,7.181,34.547,3.161,44.89,2.091
		c6.303-0.652,12.522-0.247,18.608,1.457c10.072,2.819,18.494,8.276,25.136,16.374c5.726,6.979,9.361,14.922,10.683,23.886
		c0.201,1.364,0.386,2.731,0.578,4.097C99.895,50.167,99.895,52.43,99.895,54.689z"/>
</g>
</svg>
