<?xml version="1.0" encoding="utf-8"?>
<!-- Generator: Adobe Illustrator 16.0.0, SVG Export Plug-In . SVG Version: 6.00 Build 0)  -->
<!DOCTYPE svg PUBLIC "-//W3C//DTD SVG 1.1//EN" "http://www.w3.org/Graphics/SVG/1.1/DTD/svg11.dtd">
<svg version="1.1" id="Layer_1" xmlns="http://www.w3.org/2000/svg" xmlns:xlink="http://www.w3.org/1999/xlink" x="0px" y="0px"
	 width="200px" height="200px" viewBox="-50 -50 200 200" enable-background="new -50 -50 200 200" xml:space="preserve">
<circle fill="#FFFFFF" cx="50.257" cy="50.251" r="100"/>
<g>
	<path fill="#042840" d="M100.533,50.083c0,13.194,0.002,26.394,0,39.589c-0.002,5.891-4.443,10.327-10.342,10.327
		C63.575,100,36.958,100,10.34,99.999C4.443,99.999,0,95.563,0,89.672c0-26.447,0-52.896,0-79.345C0,4.438,4.443,0.002,10.341,0.001
		C36.958,0,63.575,0,90.191,0.001c5.897,0,10.34,4.437,10.342,10.326C100.535,23.578,100.533,36.83,100.533,50.083z M55.309,84.941
		c0-0.432,0-0.782,0-1.129c0-8.225,0.006-16.449-0.004-24.674c-0.004-1.59,0.307-3.065,1.127-4.459
		c1.696-2.88,5.447-4.34,8.614-3.293c3.272,1.086,5.317,3.971,5.323,7.573c0.01,8.332,0.004,16.665,0.004,24.999
		c0,0.314,0,0.632,0,0.953c5.08,0,10.036,0,15.018,0c0.017-0.275,0.037-0.489,0.037-0.703c0.002-9.152,0.014-18.307-0.014-27.458
		c-0.002-1.196-0.066-2.417-0.326-3.579c-1.329-6.015-4.884-10.291-10.525-12.775c-3.021-1.329-6.205-1.837-9.486-1.024
		c-3.829,0.948-7.006,2.911-9.383,6.087c-0.067,0.091-0.18,0.153-0.399,0.335c0-2.007,0-3.852,0-5.726c-5.063,0-10.04,0-15.009,0
		c0,14.994,0,29.92,0,44.873C45.286,84.941,50.225,84.941,55.309,84.941z M15.155,84.898c5.05,0,10.002,0,14.929,0
		c0-15,0-29.924,0-44.849c-5.011,0-9.945,0-14.929,0C15.155,55.021,15.155,69.947,15.155,84.898z M31.645,22.463
		c-0.075-4.926-3.8-8.95-9.02-8.939c-5.233,0.011-9.044,3.906-9.029,9.004c0.016,5.255,4.116,8.912,9.011,8.944
		C27.619,31.505,31.664,27.449,31.645,22.463z"/>
</g>
</svg>
