<?xml version="1.0" encoding="utf-8"?>
<!-- Generator: Adobe Illustrator 16.0.0, SVG Export Plug-In . SVG Version: 6.00 Build 0)  -->
<!DOCTYPE svg PUBLIC "-//W3C//DTD SVG 1.1//EN" "http://www.w3.org/Graphics/SVG/1.1/DTD/svg11.dtd">
<svg version="1.1" id="Layer_1" xmlns="http://www.w3.org/2000/svg" xmlns:xlink="http://www.w3.org/1999/xlink" x="0px" y="0px"
	 width="125.072px" height="143.086px" viewBox="0 0 125.072 143.086" enable-background="new 0 0 125.072 143.086"
	 xml:space="preserve">
<g>
	<path fill="#05283F" d="M118.06,6.558L4.778,71.961c-0.818,0.472-1.322,1.345-1.322,2.289s0.504,1.817,1.322,2.288l113.281,65.403
		c0.817,0.473,1.824,0.473,2.644,0c0.816-0.473,1.32-1.344,1.32-2.29V8.847c0-0.944-0.504-1.817-1.32-2.289
		C119.884,6.086,118.877,6.086,118.06,6.558z"/>
	<path fill="#C2B49B" d="M125.072,135.982V3.555c0-1.023-0.546-1.969-1.432-2.48c-0.887-0.511-1.979-0.511-2.864,0L60.993,35.59
		L125.072,135.982z"/>
	<g>
		<path fill="#FFFFFF" d="M41.699,68.502v2.63c0,3.236-1.561,5.001-4.74,5.001h-1.502v7.602h-3.18V63.501h4.682
			C40.138,63.501,41.699,65.265,41.699,68.502z M35.456,66.393v6.851h1.502c1.012,0,1.561-0.463,1.561-1.907V68.3
			c0-1.445-0.549-1.907-1.561-1.907H35.456z"/>
		<path fill="#FFFFFF" d="M49.822,83.735c-0.173-0.521-0.289-0.839-0.289-2.486v-3.181c0-1.877-0.636-2.571-2.082-2.571h-1.098
			v8.238h-3.18V63.501h4.798c3.295,0,4.711,1.532,4.711,4.654v1.59c0,2.081-0.665,3.41-2.082,4.074v0.059
			c1.59,0.665,2.11,2.168,2.11,4.279v3.121c0,0.982,0.03,1.706,0.347,2.457H49.822z M46.354,66.393v6.214h1.243
			c1.185,0,1.908-0.521,1.908-2.139v-1.994c0-1.445-0.491-2.081-1.619-2.081H46.354z"/>
		<path fill="#FFFFFF" d="M54.535,68.357c0-3.238,1.705-5.087,4.827-5.087c3.123,0,4.827,1.85,4.827,5.087v10.521
			c0,3.239-1.705,5.088-4.827,5.088c-3.122,0-4.827-1.849-4.827-5.088V68.357z M57.715,79.082c0,1.443,0.636,1.993,1.647,1.993
			c1.012,0,1.647-0.55,1.647-1.993V68.155c0-1.445-0.635-1.994-1.647-1.994c-1.012,0-1.647,0.548-1.647,1.994V79.082z"/>
		<path fill="#FFFFFF" d="M65.376,80.845c0.348,0.029,0.752,0.029,1.099,0.029c1.012,0,1.821-0.376,1.821-1.938V63.501h3.179v15.205
			c0,4.046-2.168,5.087-4.567,5.087c-0.578,0-1.012,0-1.532-0.058V80.845z"/>
		<path fill="#FFFFFF" d="M76.823,72.03h4.364v2.888h-4.364v5.927h5.492v2.891h-8.672V63.501h8.672v2.891h-5.492V72.03z"/>
		<path fill="#FFFFFF" d="M93.503,76.191v2.687c0,3.239-1.619,5.088-4.739,5.088c-3.122,0-4.742-1.849-4.742-5.088V68.357
			c0-3.238,1.62-5.087,4.742-5.087c3.12,0,4.739,1.85,4.739,5.087v1.966h-3.006v-2.168c0-1.445-0.637-1.994-1.648-1.994
			s-1.646,0.548-1.646,1.994v10.927c0,1.443,0.635,1.966,1.646,1.966s1.648-0.522,1.648-1.966v-2.891H93.503z"/>
		<path fill="#FFFFFF" d="M94.516,63.501h9.828v2.891h-3.324v17.343h-3.181V66.393h-3.323V63.501z"/>
		<path fill="#FFFFFF" d="M110.009,63.27c3.093,0,4.684,1.85,4.684,5.087v0.636h-3.007v-0.838c0-1.445-0.577-1.994-1.589-1.994
			c-1.013,0-1.59,0.548-1.59,1.994c0,1.474,0.636,2.572,2.716,4.395c2.659,2.342,3.499,4.017,3.499,6.328
			c0,3.239-1.62,5.088-4.741,5.088s-4.741-1.849-4.741-5.088v-1.241h3.007v1.445c0,1.443,0.636,1.966,1.647,1.966
			c1.013,0,1.647-0.522,1.647-1.966c0-1.475-0.635-2.573-2.717-4.395c-2.659-2.342-3.497-4.017-3.497-6.33
			C105.327,65.12,106.917,63.27,110.009,63.27z"/>
	</g>
</g>
</svg>
